<svg width="122" height="105" viewBox="0 0 122 105" fill="none" xmlns="http://www.w3.org/2000/svg">
<g id="tent" clip-path="url(#clip0_175_1355)">
<path id="Vector" d="M4.1678 85.4388L2.88417 85.092L11.0908 54.1192L12.3748 54.4425L4.1678 85.4388Z" fill="url(#paint0_linear_175_1355)"/>
<path id="Vector_2" d="M5.5516 85.4591L2.27202 85.4114C2.27202 85.4114 1.96749 85.4069 1.82693 85.4049C1.68638 85.4028 1.59575 85.1907 1.59575 85.1907C1.45861 84.9543 1.34523 84.695 1.20843 84.4352C1.07163 84.1755 0.981682 83.9165 0.891732 83.6574C0.846587 83.5396 0.801442 83.4218 0.756296 83.304C0.711151 83.1862 0.689431 83.0687 0.644286 82.9509C0.577421 82.7156 0.510556 82.4803 0.466776 82.2688C0.138251 80.6942 0.367846 79.4089 1.14635 79.0453C1.92485 78.6818 3.0635 79.331 4.05237 80.6106C4.16711 80.7763 4.30562 80.9189 4.42002 81.108C4.44276 81.1552 4.48893 81.2027 4.51167 81.2499C4.62607 81.439 4.74047 81.6281 4.85487 81.8173C4.99201 82.0536 5.12881 82.3133 5.24218 82.5727C5.35556 82.8321 5.46893 83.0915 5.55888 83.3505C5.60403 83.4683 5.64917 83.5861 5.69432 83.7039C5.71638 83.798 5.76187 83.8924 5.78393 83.9864C5.80667 84.0336 5.80633 84.057 5.80565 84.1039C5.82771 84.1979 5.84977 84.292 5.87183 84.386C5.89389 84.48 5.91595 84.5741 5.93801 84.6681C5.93767 84.6916 5.93767 84.6916 5.93733 84.715L5.93699 84.7384C5.95973 84.7856 5.95871 84.8559 5.98111 84.9265C6.04763 85.1852 5.83271 85.4632 5.5516 85.4591Z" fill="url(#paint1_linear_175_1355)"/>
<path id="Vector_3" d="M116.331 87.073L117.625 86.7638L110.324 55.5651L109.031 55.8509L116.331 87.073Z" fill="url(#paint2_linear_175_1355)"/>
<path id="Vector_4" d="M114.949 87.0528L118.228 87.1005C118.228 87.1005 118.533 87.105 118.673 87.107C118.814 87.1091 118.911 86.8996 118.911 86.8996C119.055 86.6674 119.176 86.4114 119.32 86.1558C119.441 85.8998 119.562 85.6438 119.659 85.3875C119.708 85.2711 119.756 85.1546 119.805 85.0382C119.853 84.9217 119.878 84.805 119.927 84.6885C120.001 84.4553 120.074 84.222 120.124 84.0119C120.499 82.4475 120.306 81.156 119.539 80.77C118.771 80.3839 117.614 80.9997 116.588 82.25C116.469 82.4122 116.326 82.5507 116.207 82.7364C116.182 82.783 116.135 82.8291 116.111 82.8756C115.991 83.0613 115.871 83.247 115.751 83.4327C115.607 83.6649 115.463 83.9206 115.342 84.1765C115.221 84.4325 115.1 84.6885 115.003 84.9448C114.954 85.0613 114.906 85.1777 114.857 85.2942C114.832 85.3875 114.784 85.4805 114.759 85.5739C114.735 85.6204 114.735 85.6438 114.734 85.6907C114.709 85.784 114.685 85.8774 114.66 85.9708C114.635 86.0641 114.61 86.1575 114.585 86.2508C114.585 86.2743 114.585 86.2743 114.585 86.2977L114.584 86.3211C114.56 86.3676 114.559 86.4379 114.535 86.5078C114.461 86.7645 114.668 87.0487 114.949 87.0528Z" fill="url(#paint3_linear_175_1355)"/>
<path id="Vector_5" d="M98.6245 43.3516L61.4727 2.50997L23.1472 42.2523C23.1472 42.2523 24.4072 69.9656 16.1195 85.5902L60.2533 86.233L104.387 86.8758C96.5814 71.0168 98.6245 43.3516 98.6245 43.3516Z" fill="url(#paint4_linear_175_1355)"/>
<path id="Vector_6" d="M23.1472 42.2523C23.1472 42.2523 24.4072 69.9656 16.1195 85.5902L60.2533 86.233L61.4727 2.50997L23.1472 42.2523Z" fill="url(#paint5_linear_175_1355)"/>
<path id="Vector_7" d="M98.6235 43.351L61.4717 2.50938L60.252 86.2559L104.386 86.8987C96.5804 71.0162 98.6235 43.351 98.6235 43.351Z" fill="url(#paint6_linear_175_1355)"/>
<path id="Vector_8" d="M98.6245 43.3516L61.4727 2.50997L23.1472 42.2523C23.1472 42.2523 24.4072 69.9656 16.1195 85.5902L60.2533 86.233L104.387 86.8758C96.5814 71.0168 98.6245 43.3516 98.6245 43.3516Z" fill="url(#paint7_linear_175_1355)"/>
<path id="Vector_9" d="M10.9725 56.0162C10.7148 56.0125 10.4585 55.915 10.2504 55.7245C9.83456 55.3202 9.82069 54.6639 10.2251 54.2481L60.7087 1.79594C60.8991 1.58784 61.1819 1.47481 61.4865 1.47924C61.7676 1.48334 62.047 1.60456 62.2547 1.81846L111.189 55.7185C111.581 56.146 111.548 56.825 111.121 57.1937C110.694 57.5858 110.015 57.5525 109.646 57.1253L73.0946 16.8782C66.7991 9.94476 55.953 9.78679 49.4582 16.5339L11.7503 55.6995C11.5361 55.9307 11.2536 56.0203 10.9725 56.0162Z" fill="url(#paint8_linear_175_1355)"/>
<path id="Vector_10" d="M60.9305 39.3825C60.9305 39.3825 59.6554 72.237 48.4179 86.0848L82.3147 86.5785C73.5938 83.6866 66.9496 76.5607 64.7363 67.6483C62.5455 58.8065 60.4115 47.6693 60.9305 39.3825Z" fill="url(#paint9_linear_175_1355)"/>
<path id="Vector_11" d="M43.2038 82.3059C43.8841 83.8622 45.3753 86.0396 48.4207 86.0839C51.9518 81.7304 54.5026 75.5116 56.3309 69.0245C56.3306 69.0479 51.2624 79.1899 44.1189 80.6088C43.32 80.7612 42.8864 81.5749 43.2038 82.3059Z" fill="url(#paint10_linear_175_1355)"/>
<path id="Vector_12" d="M63.6133 62.8506C63.9876 64.4962 64.3627 66.0949 64.7387 67.6234C66.952 76.5358 73.5962 83.6618 82.3171 86.5536C85.2453 86.5962 87.9397 84.9953 89.2897 82.3908L91.6279 77.9027C91.9654 77.2516 91.4847 76.4714 90.7578 76.5077C70.807 77.2949 63.6133 62.8506 63.6133 62.8506Z" fill="url(#paint11_linear_175_1355)"/>
</g>
<defs>
<linearGradient id="paint0_linear_175_1355" x1="7.3712" y1="87.5001" x2="7.9336" y2="48.8852" gradientUnits="userSpaceOnUse">
<stop stop-color="#FFE2AB"/>
<stop offset="1" stop-color="#764C2F"/>
</linearGradient>
<linearGradient id="paint1_linear_175_1355" x1="2.07004" y1="82.1801" x2="4.69511" y2="82.2183" gradientUnits="userSpaceOnUse">
<stop stop-color="#E7F1FD"/>
<stop offset="1" stop-color="#B2C7D8"/>
</linearGradient>
<linearGradient id="paint2_linear_175_1355" x1="113.069" y1="89.0402" x2="113.632" y2="50.4253" gradientUnits="userSpaceOnUse">
<stop stop-color="#FFE2AB"/>
<stop offset="1" stop-color="#764C2F"/>
</linearGradient>
<linearGradient id="paint3_linear_175_1355" x1="118.211" y1="84.7719" x2="111.48" y2="77.4878" gradientUnits="userSpaceOnUse">
<stop stop-color="#E1A17E"/>
<stop offset="1" stop-color="#764C2F"/>
</linearGradient>
<linearGradient id="paint4_linear_175_1355" x1="34.1481" y1="39.2647" x2="88.8997" y2="95.6348" gradientUnits="userSpaceOnUse">
<stop stop-color="#D68B57"/>
<stop offset="1" stop-color="#764C2F"/>
</linearGradient>
<linearGradient id="paint5_linear_175_1355" x1="54.1882" y1="57.8144" x2="67.3488" y2="69.5831" gradientUnits="userSpaceOnUse">
<stop stop-color="#8A500B" stop-opacity="0.28"/>
<stop offset="1" stop-color="#62321D"/>
</linearGradient>
<linearGradient id="paint6_linear_175_1355" x1="88.6305" y1="44.7871" x2="11.2816" y2="43.6606" gradientUnits="userSpaceOnUse">
<stop stop-color="#764C2F" stop-opacity="0"/>
<stop offset="1" stop-color="#764C2F"/>
</linearGradient>
<linearGradient id="paint7_linear_175_1355" x1="41.9829" y1="47.3312" x2="25.7015" y2="30.5685" gradientUnits="userSpaceOnUse">
<stop stop-color="#8A500B" stop-opacity="0.28"/>
<stop offset="1" stop-color="#764C2F"/>
</linearGradient>
<linearGradient id="paint8_linear_175_1355" x1="75.1225" y1="37.0208" x2="32.0573" y2="-60.3711" gradientUnits="userSpaceOnUse">
<stop stop-color="#E1A17E"/>
<stop offset="1" stop-color="#764C2F"/>
</linearGradient>
<linearGradient id="paint9_linear_175_1355" x1="65.3226" y1="89.3372" x2="66.1618" y2="31.7172" gradientUnits="userSpaceOnUse">
<stop stop-color="#FFE2AB"/>
<stop offset="1" stop-color="#764C2F"/>
</linearGradient>
<linearGradient id="paint10_linear_175_1355" x1="51.4674" y1="79.9349" x2="33.6008" y2="63.3896" gradientUnits="userSpaceOnUse">
<stop stop-color="#E1A17E"/>
<stop offset="1" stop-color="#764C2F"/>
</linearGradient>
<linearGradient id="paint11_linear_175_1355" x1="81.5094" y1="78.0925" x2="58.6778" y2="44.3624" gradientUnits="userSpaceOnUse">
<stop stop-color="#E1A17E"/>
<stop offset="1" stop-color="#764C2F"/>
</linearGradient>
<clipPath id="clip0_175_1355">
<rect width="120" height="102.979" fill="white" transform="translate(1.5 0.019043) rotate(0.834424)"/>
</clipPath>
</defs>
</svg>
