<svg width="100" height="100" viewBox="0 0 100 100" fill="none" xmlns="http://www.w3.org/2000/svg">
<g id="property" clip-path="url(#clip0_175_1369)">
<path id="Vector" d="M80.2018 46.6631V100H10.918V46.6631L45.56 11.8115L80.2018 46.6631Z" fill="url(#paint0_linear_175_1369)"/>
<path id="Vector_2" d="M29.4068 80.1063H18.6002C17.9186 80.1063 17.3662 79.5538 17.3662 78.8723V63.8837C17.3662 63.202 17.9187 62.6497 18.6002 62.6497H29.4068C30.0885 62.6497 30.6408 63.2022 30.6408 63.8837V78.8723C30.6408 79.554 30.0883 80.1063 29.4068 80.1063Z" fill="url(#paint1_linear_175_1369)"/>
<path id="Vector_3" d="M29.4084 81.8525H18.6018C16.9582 81.8525 15.6211 80.5154 15.6211 78.8719V63.883C15.6211 62.2395 16.9582 60.9023 18.6018 60.9023H29.4084C31.052 60.9023 32.3891 62.2395 32.3891 63.883V78.8719C32.3891 80.5154 31.052 81.8525 29.4084 81.8525ZM19.1145 78.3592H28.8957V64.3959H19.1145V78.3592Z" fill="#1F1F1F"/>
<path id="Vector_4" d="M72.9351 80.107H62.1285C61.4469 80.107 60.8945 79.5545 60.8945 78.873V63.8844C60.8945 63.2027 61.4471 62.6504 62.1285 62.6504H72.9351C73.6168 62.6504 74.1691 63.2029 74.1691 63.8844V78.873C74.1689 79.5547 73.6164 80.107 72.9351 80.107Z" fill="url(#paint2_linear_175_1369)"/>
<path id="Vector_5" d="M72.9318 81.8525H62.1252C60.4816 81.8525 59.1445 80.5154 59.1445 78.8719V63.883C59.1445 62.2395 60.4816 60.9023 62.1252 60.9023H72.9318C74.5754 60.9023 75.9125 62.2395 75.9125 63.883V78.8719C75.9123 80.5154 74.5754 81.8525 72.9318 81.8525ZM62.6377 78.3592H72.4189V64.3959H62.6377V78.3592Z" fill="#1F1F1F"/>
<path id="Vector_6" d="M88.0338 51.4803L47.6428 11.0764C46.4914 9.92505 44.625 9.92505 43.4736 11.0764L3.07266 51.4772C2.31953 52.2303 2.31953 53.4514 3.07266 54.2048L4.79434 55.9264C5.54746 56.6796 6.76856 56.6796 7.52188 55.9264L45.0094 18.4393C45.3125 18.1362 45.8039 18.1362 46.107 18.4393L83.5844 55.9298C84.3375 56.6829 85.5586 56.6829 86.3119 55.9298L88.0336 54.2081C88.7869 53.4546 88.7869 52.2335 88.0338 51.4803Z" fill="url(#paint3_linear_175_1369)"/>
<path id="Vector_7" d="M47.6432 11.0764C47.0674 10.5006 46.3129 10.2129 45.5586 10.2129V18.2119C45.7572 18.2119 45.9559 18.2877 46.1074 18.4393L83.5848 55.9299C84.3379 56.683 85.559 56.683 86.3123 55.9299L88.034 54.2082C88.7871 53.4551 88.7871 52.234 88.034 51.4807L47.6432 11.0764Z" fill="url(#paint4_linear_175_1369)"/>
<path id="Vector_8" d="M38.3407 99.9992V66.347C38.3407 62.3597 41.5731 59.1277 45.56 59.1277C49.5473 59.1277 52.7794 62.3601 52.7794 66.347V99.9992H38.3407Z" fill="url(#paint5_linear_175_1369)"/>
<path id="Vector_9" d="M54.5654 99.9992H50.9898V66.3063C50.9898 63.3412 48.5639 60.9152 45.5988 60.9152H45.5174C42.5398 60.9152 40.1264 63.3289 40.1264 66.3063V99.9992H36.5508V66.3471C36.5508 61.3727 40.5836 57.3398 45.558 57.3398C50.5326 57.3398 54.5652 61.3727 54.5652 66.3471L54.5654 99.9992Z" fill="#1F1F1F"/>
<path id="Vector_10" d="M42.9984 74.9636C43.8988 74.9636 44.6287 74.2337 44.6287 73.3334C44.6287 72.433 43.8988 71.7031 42.9984 71.7031C42.0981 71.7031 41.3682 72.433 41.3682 73.3334C41.3682 74.2337 42.0981 74.9636 42.9984 74.9636Z" fill="#1F1F1F"/>
<path id="Vector_11" d="M80.2033 90.4609H10.917V99.9994H80.2033V90.4609Z" fill="url(#paint6_linear_175_1369)"/>
<path id="Vector_12" d="M45.5621 50.2551C51.1473 50.2551 55.675 45.7274 55.675 40.1422C55.675 34.557 51.1473 30.0293 45.5621 30.0293C39.9769 30.0293 35.4492 34.557 35.4492 40.1422C35.4492 45.7274 39.9769 50.2551 45.5621 50.2551Z" fill="url(#paint7_linear_175_1369)"/>
<path id="Vector_13" d="M45.5596 28.4001C39.0838 28.4001 33.8154 33.6683 33.8154 40.1442C33.8154 46.6202 39.0836 51.8884 45.5596 51.8884C52.0355 51.8884 57.3037 46.6202 57.3037 40.1442C57.3037 33.6683 52.0353 28.4001 45.5596 28.4001ZM53.8824 38.513H47.1906V31.8212C50.5613 32.4808 53.2228 35.1423 53.8824 38.513ZM43.9285 31.8212V38.513H37.2367C37.8961 35.1423 40.5576 32.4808 43.9285 31.8212ZM37.2367 41.7753H43.9285V48.4671C40.5576 47.8075 37.8961 45.146 37.2367 41.7753ZM47.1906 48.4669V41.7751H53.8824C53.2228 45.146 50.5613 47.8075 47.1906 48.4669Z" fill="#1F1F1F"/>
</g>
<defs>
<linearGradient id="paint0_linear_175_1369" x1="27.2001" y1="35.8297" x2="81.8029" y2="86.9963" gradientUnits="userSpaceOnUse">
<stop stop-color="#FFD37E"/>
<stop offset="1" stop-color="#764C2F"/>
</linearGradient>
<linearGradient id="paint1_linear_175_1369" x1="25.8536" y1="73.8112" x2="7.44651" y2="57.2383" gradientUnits="userSpaceOnUse">
<stop stop-color="#E1A17E"/>
<stop offset="1" stop-color="#764C2F"/>
</linearGradient>
<linearGradient id="paint2_linear_175_1369" x1="69.3819" y1="73.812" x2="50.9748" y2="57.2391" gradientUnits="userSpaceOnUse">
<stop stop-color="#E1A17E"/>
<stop offset="1" stop-color="#764C2F"/>
</linearGradient>
<linearGradient id="paint3_linear_175_1369" x1="57.5516" y1="39.8048" x2="20.6073" y2="-41.562" gradientUnits="userSpaceOnUse">
<stop stop-color="#E1A17E"/>
<stop offset="1" stop-color="#764C2F"/>
</linearGradient>
<linearGradient id="paint4_linear_175_1369" x1="73.0772" y1="39.8049" x2="24.233" y2="-13.9762" gradientUnits="userSpaceOnUse">
<stop stop-color="#E1A17E"/>
<stop offset="1" stop-color="#764C2F"/>
</linearGradient>
<linearGradient id="paint5_linear_175_1369" x1="47.5723" y1="85.2604" x2="16.719" y2="72.3553" gradientUnits="userSpaceOnUse">
<stop stop-color="#E1A17E"/>
<stop offset="1" stop-color="#764C2F"/>
</linearGradient>
<linearGradient id="paint6_linear_175_1369" x1="83" y1="127" x2="87.2152" y2="100.289" gradientUnits="userSpaceOnUse">
<stop stop-color="#FFE2AB"/>
<stop offset="1" stop-color="#764C2F"/>
</linearGradient>
<linearGradient id="paint7_linear_175_1369" x1="48.381" y1="42.9614" x2="27.2387" y2="17.9289" gradientUnits="userSpaceOnUse">
<stop stop-color="#E1A17E"/>
<stop offset="1" stop-color="#764C2F"/>
</linearGradient>
<clipPath id="clip0_175_1369">
<rect width="100" height="100" fill="white"/>
</clipPath>
</defs>
</svg>
