<svg width="110" height="110" viewBox="0 0 110 110" fill="none" xmlns="http://www.w3.org/2000/svg">
<g id="mansion">
<path id="Vector" d="M32.0797 36.7665H23.4122C22.1857 36.7665 21.1914 35.7722 21.1914 34.5457V20.7207C21.1914 19.4941 22.1857 18.4998 23.4122 18.4998H32.0797C33.3062 18.4998 34.3005 19.4941 34.3005 20.7207V34.5457C34.3007 35.7722 33.3064 36.7665 32.0797 36.7665Z" fill="url(#paint0_linear_175_1439)"/>
<path id="Vector_2" d="M29.3336 76.1861H3.45117V109.402H29.3336V76.1861Z" fill="url(#paint1_linear_175_1439)"/>
<path id="Vector_3" d="M30.4114 83.3034H3.50862C2.40626 83.3034 1.61713 82.2391 1.93704 81.184L4.60669 72.3902C4.8168 71.698 5.45489 71.2251 6.17827 71.2251H30.4116V83.3034H30.4114Z" fill="url(#paint2_linear_175_1439)"/>
<path id="Vector_4" d="M106.549 76.1861H80.6667V109.402H106.549V76.1861Z" fill="url(#paint3_linear_175_1439)"/>
<path id="Vector_5" d="M79.5889 83.3034H106.492C107.594 83.3034 108.383 82.2391 108.063 81.184L105.394 72.3902C105.183 71.698 104.545 71.2251 103.822 71.2251H79.5889V83.3034Z" fill="url(#paint4_linear_175_1439)"/>
<path id="Vector_6" d="M89.1739 40.679V109.401H20.8359V40.679L55.0006 7.18295L89.1739 40.679Z" fill="url(#paint5_linear_175_1439)"/>
<path id="Vector_7" d="M39.0721 89.7786H28.4126C27.7404 89.7786 27.1956 89.2337 27.1956 88.5615V73.777C27.1956 73.1047 27.7406 72.5599 28.4126 72.5599H39.0721C39.7444 72.5599 40.2892 73.105 40.2892 73.777V88.5615C40.2894 89.2337 39.7444 89.7786 39.0721 89.7786Z" fill="url(#paint6_linear_175_1439)"/>
<path id="Vector_8" d="M39.072 91.5018H28.4126C26.7916 91.5018 25.4727 90.1828 25.4727 88.5618V73.7774C25.4727 72.1564 26.7916 70.8374 28.4126 70.8374H39.072C40.693 70.8374 42.012 72.1564 42.012 73.7774V88.5618C42.0122 90.1828 40.6933 91.5018 39.072 91.5018ZM28.9185 88.0559H38.5663V74.2829H28.9185V88.0559Z" fill="#1F1F1F"/>
<path id="Vector_9" d="M82.0052 89.7786H71.3458C70.6735 89.7786 70.1287 89.2337 70.1287 88.5615V73.777C70.1287 73.1047 70.6735 72.5599 71.3458 72.5599H82.0052C82.6775 72.5599 83.2223 73.105 83.2223 73.777V88.5615C83.2225 89.2337 82.6775 89.7786 82.0052 89.7786Z" fill="url(#paint7_linear_175_1439)"/>
<path id="Vector_10" d="M82.0057 91.5018H71.3462C69.7252 91.5018 68.4062 90.1828 68.4062 88.5618V73.7774C68.4062 72.1564 69.7252 70.8374 71.3462 70.8374H82.0057C83.6266 70.8374 84.9456 72.1564 84.9456 73.7774V88.5618C84.9456 90.1828 83.6266 91.5018 82.0057 91.5018ZM71.8517 88.0559H81.4995V74.2829H71.8517V88.0559Z" fill="#1F1F1F"/>
<path id="Vector_11" d="M47.8838 109.4V72.0671C47.8838 70.4203 49.2186 69.0855 50.8654 69.0855H59.1446C60.7914 69.0855 62.1262 70.4203 62.1262 72.0671V109.4H47.8838Z" fill="url(#paint8_linear_175_1439)"/>
<path id="Vector_12" d="M63.8895 109.4H60.3626V73.0837C60.3626 71.8548 59.3571 70.8491 58.128 70.8491H51.8816C50.6476 70.8491 49.647 71.8494 49.647 73.0837V109.4H46.1204V70.7514C46.1204 68.8575 47.6556 67.3222 49.5495 67.3222H60.4601C62.354 67.3222 63.8893 68.8575 63.8893 70.7514V109.4H63.8895Z" fill="#1F1F1F"/>
<path id="Vector_13" d="M52.479 84.707C53.367 84.707 54.0869 83.9871 54.0869 83.0991C54.0869 82.2111 53.367 81.4912 52.479 81.4912C51.591 81.4912 50.8711 82.2111 50.8711 83.0991C50.8711 83.9871 51.591 84.707 52.479 84.707Z" fill="#1F1F1F"/>
<path id="Vector_14" d="M89.1754 99.9915H20.833V109.4H89.1754V99.9915Z" fill="url(#paint9_linear_175_1439)"/>
<path id="Vector_15" d="M84.1648 46.966H26.7204C25.3505 46.966 24.2363 48.0804 24.2363 49.45V60.4786H25.9617V49.45C25.9617 49.0317 26.3021 48.6914 26.7204 48.6914H30.1566V60.4784H31.882V48.6914H37.0079V60.4784H38.7333V48.6914H43.8593V60.4784H45.5847V48.6914H50.7107V60.4784H52.4361V48.6914H57.5622V60.4784H59.2877V48.6914H64.4136V60.4784H66.139V48.6914H71.265V60.4784H72.9904V48.6914H78.1163V60.4784H79.8418V48.6914H84.164C84.5823 48.6914 84.9226 49.0317 84.9226 49.45V60.4786H86.648V49.45C86.6489 48.0804 85.5345 46.966 84.1648 46.966Z" fill="url(#paint10_linear_175_1439)"/>
<path id="Vector_16" d="M90.5896 58.6884V64.2206C90.5896 65.0428 89.9231 65.7093 89.1009 65.7093H20.8988C20.0766 65.7093 19.4102 65.0428 19.4102 64.2206V58.6884C19.4102 57.8662 20.0766 57.1997 20.8988 57.1997H89.1009C89.9231 57.1997 90.5896 57.8662 90.5896 58.6884Z" fill="url(#paint11_linear_175_1439)"/>
<path id="Vector_17" d="M101.409 46.67L57.2831 2.52994C56.0254 1.27225 53.9861 1.27225 52.7284 2.52994L8.59175 46.6664C7.7689 47.4892 7.7689 48.8232 8.59175 49.646L10.4727 51.527C11.2956 52.3498 12.6295 52.3498 13.4524 51.527L54.4059 10.5735C54.737 10.2424 55.2739 10.2424 55.6049 10.5735L96.5477 51.5304C97.3706 52.3533 98.7045 52.3533 99.5274 51.5304L101.408 49.6495C102.231 48.8268 102.231 47.4929 101.409 46.67Z" fill="url(#paint12_linear_175_1439)"/>
<path id="Vector_18" d="M57.2832 2.53014C56.6544 1.90129 55.8302 1.58698 55.0059 1.58698V10.3257C55.2229 10.3257 55.4398 10.4087 55.6055 10.5741L96.548 51.5311C97.3709 52.3539 98.7049 52.3539 99.5277 51.5311L101.409 49.6501C102.232 48.8273 102.232 47.4933 101.409 46.6704L57.2832 2.53014Z" fill="url(#paint13_linear_175_1439)"/>
<path id="Vector_19" d="M63.257 41.6088H46.7431C46.0919 41.6088 45.5642 41.0809 45.5642 40.4299V32.1728C45.5642 26.9614 49.7889 22.7367 55.0004 22.7367C60.2118 22.7367 64.4365 26.9614 64.4365 32.1728V40.4299C64.4361 41.0809 63.908 41.6088 63.257 41.6088Z" fill="url(#paint14_linear_175_1439)"/>
<path id="Vector_20" d="M55 20.9453C48.809 20.9453 43.7725 25.9821 43.7725 32.1728V40.4297C43.7725 42.0679 45.1049 43.4004 46.7431 43.4004H63.2571C64.8953 43.4004 66.2277 42.0679 66.2277 40.4297V32.1728C66.2275 25.9819 61.1911 20.9453 55 20.9453ZM62.5825 31.2174H56.7918V24.7427C59.843 25.4787 62.1854 28.0491 62.5825 31.2174ZM53.2082 24.7427V31.2174H47.4175C47.8145 28.0491 50.1568 25.4787 53.2082 24.7427ZM47.3556 34.8008H53.2082V39.8174H47.3556V34.8008ZM56.7918 39.8174V34.8008H62.6443V39.8174H56.7918Z" fill="#1F1F1F"/>
</g>
<defs>
<linearGradient id="paint0_linear_175_1439" x1="24.2721" y1="23.4748" x2="35.4703" y2="33.0603" gradientUnits="userSpaceOnUse">
<stop stop-color="#FFD37E"/>
<stop offset="1" stop-color="#764C2F"/>
</linearGradient>
<linearGradient id="paint1_linear_175_1439" x1="9.53372" y1="85.2324" x2="30.0879" y2="104.336" gradientUnits="userSpaceOnUse">
<stop stop-color="#FFD37E"/>
<stop offset="1" stop-color="#764C2F"/>
</linearGradient>
<linearGradient id="paint2_linear_175_1439" x1="20.1169" y1="78.9478" x2="12.0006" y2="56.236" gradientUnits="userSpaceOnUse">
<stop stop-color="#E1A17E"/>
<stop offset="1" stop-color="#764C2F"/>
</linearGradient>
<linearGradient id="paint3_linear_175_1439" x1="86.7493" y1="85.2324" x2="107.303" y2="104.336" gradientUnits="userSpaceOnUse">
<stop stop-color="#FFD37E"/>
<stop offset="1" stop-color="#764C2F"/>
</linearGradient>
<linearGradient id="paint4_linear_175_1439" x1="97.8404" y1="78.9478" x2="89.7241" y2="56.236" gradientUnits="userSpaceOnUse">
<stop stop-color="#E1A17E"/>
<stop offset="1" stop-color="#764C2F"/>
</linearGradient>
<linearGradient id="paint5_linear_175_1439" x1="36.8958" y1="35.022" x2="98.7276" y2="84.328" gradientUnits="userSpaceOnUse">
<stop stop-color="#FFD37E"/>
<stop offset="1" stop-color="#764C2F"/>
</linearGradient>
<linearGradient id="paint6_linear_175_1439" x1="35.5672" y1="83.5693" x2="17.4111" y2="67.2223" gradientUnits="userSpaceOnUse">
<stop stop-color="#E1A17E"/>
<stop offset="1" stop-color="#764C2F"/>
</linearGradient>
<linearGradient id="paint7_linear_175_1439" x1="78.5003" y1="83.5693" x2="60.3442" y2="67.2223" gradientUnits="userSpaceOnUse">
<stop stop-color="#E1A17E"/>
<stop offset="1" stop-color="#764C2F"/>
</linearGradient>
<linearGradient id="paint8_linear_175_1439" x1="56.9899" y1="94.8623" x2="26.5562" y2="82.1323" gradientUnits="userSpaceOnUse">
<stop stop-color="#E1A17E"/>
<stop offset="1" stop-color="#764C2F"/>
</linearGradient>
<linearGradient id="paint9_linear_175_1439" x1="91.934" y1="136.032" x2="96.0917" y2="109.685" gradientUnits="userSpaceOnUse">
<stop stop-color="#FFE2AB"/>
<stop offset="1" stop-color="#764C2F"/>
</linearGradient>
<linearGradient id="paint10_linear_175_1439" x1="64.1404" y1="55.6058" x2="59.0703" y2="27.8792" gradientUnits="userSpaceOnUse">
<stop stop-color="#E1A17E"/>
<stop offset="1" stop-color="#764C2F"/>
</linearGradient>
<linearGradient id="paint11_linear_175_1439" x1="64.9201" y1="62.6406" x2="63.1165" y2="44.7781" gradientUnits="userSpaceOnUse">
<stop stop-color="#E1A17E"/>
<stop offset="1" stop-color="#764C2F"/>
</linearGradient>
<linearGradient id="paint12_linear_175_1439" x1="68.1079" y1="33.9147" x2="27.7479" y2="-54.9754" gradientUnits="userSpaceOnUse">
<stop stop-color="#E1A17E"/>
<stop offset="1" stop-color="#764C2F"/>
</linearGradient>
<linearGradient id="paint13_linear_175_1439" x1="85.069" y1="33.9152" x2="31.7085" y2="-24.8388" gradientUnits="userSpaceOnUse">
<stop stop-color="#E1A17E"/>
<stop offset="1" stop-color="#764C2F"/>
</linearGradient>
<linearGradient id="paint14_linear_175_1439" x1="57.6306" y1="34.8033" x2="37.9034" y2="11.4459" gradientUnits="userSpaceOnUse">
<stop stop-color="#E1A17E"/>
<stop offset="1" stop-color="#764C2F"/>
</linearGradient>
</defs>
</svg>
