<svg width="132" height="130" viewBox="0 0 132 130" fill="none" xmlns="http://www.w3.org/2000/svg">
<g id="castle" clip-path="url(#clip0_175_1407)">
<path id="Vector" d="M65.2102 1.54626V12.3224H79.3557C79.8204 12.3224 80.0822 11.7938 79.7984 11.4288L76.5714 7.27304C76.4155 7.07368 76.4155 6.79498 76.5714 6.59563L79.7984 2.4399C80.0822 2.07491 79.8204 1.54626 79.3557 1.54626H65.2102Z" fill="url(#paint0_linear_175_1407)"/>
<path id="Vector_2" d="M65.8003 30C65.2439 30 64.793 29.128 64.793 28.0532V1.94579C64.793 0.871013 65.2439 0 65.8003 0C66.3573 0 66.8082 0.871013 66.8082 1.94579V28.0532C66.8082 29.128 66.3573 30 65.8003 30Z" fill="url(#paint1_linear_175_1407)"/>
<path id="Vector_3" d="M80.794 43.6114H50.6631C49.5408 43.6114 48.9302 42.3111 49.6517 41.4581L64.7166 23.6311C65.2443 23.0073 66.2127 23.0073 66.7404 23.6311L81.8054 41.4581C82.5259 42.3111 81.9153 43.6114 80.794 43.6114Z" fill="url(#paint2_linear_175_1407)"/>
<path id="Vector_4" d="M53.0449 43.6114H78.4116V67.185H53.0449V43.6114Z" fill="url(#paint3_linear_175_1407)"/>
<path id="Vector_5" d="M71.8467 61V65.8348H59.755V61H48.197C47.9024 61 47.6633 61.2594 47.6633 61.579V74.7064C47.6633 75.0261 47.9024 75.2844 48.197 75.2844H52.4532V102H79.1495V75.2844H83.4057C83.7002 75.2844 83.9383 75.0261 83.9383 74.7064V61.579C83.9383 61.2594 83.7002 61 83.4057 61H71.8467Z" fill="url(#paint4_linear_175_1407)"/>
<path id="Vector_6" d="M34.5845 85.3056H96.8709V130H34.5845V85.3056Z" fill="url(#paint5_linear_175_1407)"/>
<path id="Vector_7" d="M121 65.1974H95.3009C94.3434 65.1974 93.8227 64.0885 94.4374 63.3615L107.287 48.1569C107.737 47.6243 108.563 47.6243 109.014 48.1569L121.863 63.3615C122.478 64.0885 121.957 65.1974 121 65.1974Z" fill="url(#paint6_linear_175_1407)"/>
<path id="Vector_8" d="M97.0376 65.1974H118.675V85.3056H97.0376V65.1974Z" fill="url(#paint7_linear_175_1407)"/>
<path id="Vector_9" d="M113.259 81.5029V85.2391H103.041V81.5029H93.3527C93.0608 81.5029 92.824 81.738 92.824 82.0276V92.0182C92.824 92.3078 93.0608 92.5429 93.3527 92.5429H96.8705V130H119.429V92.5429H122.947C123.24 92.5429 123.476 92.3078 123.476 92.0182V82.0266C123.476 81.737 123.24 81.5019 122.947 81.5019H113.259V81.5029Z" fill="url(#paint8_linear_175_1407)"/>
<path id="Vector_10" d="M102.556 107.652C102.556 106.585 101.684 105.72 100.608 105.72H96.8721V109.585H100.608C101.684 109.585 102.556 108.72 102.556 107.652Z" fill="#1F1F1F"/>
<path id="Vector_11" d="M102.556 117.549C102.556 116.481 101.684 115.616 100.608 115.616H96.8721V119.481H100.608C101.684 119.481 102.556 118.616 102.556 117.549Z" fill="#1F1F1F"/>
<path id="Vector_12" d="M100.608 95.8238H96.8721V99.6889H100.608C101.684 99.6889 102.556 98.8241 102.556 97.7569C102.556 96.6887 101.684 95.8238 100.608 95.8238Z" fill="#1F1F1F"/>
<path id="Vector_13" d="M115.232 99.6889H118.968C119.127 99.6889 119.281 99.6681 119.429 99.6324V95.8803C119.281 95.8446 119.127 95.8238 118.968 95.8238H115.232C114.156 95.8238 113.285 96.6887 113.285 97.7569C113.285 98.8241 114.156 99.6889 115.232 99.6889Z" fill="#1F1F1F"/>
<path id="Vector_14" d="M115.232 109.585H118.968C119.127 109.585 119.281 109.564 119.429 109.529V105.777C119.281 105.741 119.127 105.72 118.968 105.72H115.232C114.156 105.72 113.285 106.585 113.285 107.652C113.285 108.72 114.156 109.585 115.232 109.585Z" fill="#1F1F1F"/>
<path id="Vector_15" d="M119.429 115.672C119.281 115.637 119.127 115.616 118.968 115.616H115.231C114.156 115.616 113.285 116.481 113.285 117.549C113.285 118.616 114.156 119.481 115.231 119.481H118.968C119.127 119.481 119.281 119.46 119.429 119.424V115.672Z" fill="#1F1F1F"/>
<path id="Vector_16" d="M36.1551 65.1974H10.4556C9.49822 65.1974 8.97753 64.0885 9.59216 63.3615L22.4414 48.1569C22.8921 47.6243 23.7176 47.6243 24.1684 48.1569L37.0176 63.3615C37.6333 64.0885 37.1116 65.1974 36.1551 65.1974Z" fill="url(#paint9_linear_175_1407)"/>
<path id="Vector_17" d="M12.3958 65.1974H34.0327V85.3056H12.3958V65.1974Z" fill="url(#paint10_linear_175_1407)"/>
<path id="Vector_18" d="M28.4142 81.5029V85.2391H18.1973V81.5029H8.50817C8.21635 81.5029 7.97949 81.738 7.97949 82.0276V92.0182C7.97949 92.3078 8.21635 92.5429 8.50817 92.5429H12.0271V130H34.5845V92.5429H38.1033C38.3952 92.5429 38.632 92.3078 38.632 92.0182V82.0266C38.632 81.737 38.3952 81.5019 38.1033 81.5019H28.4142V81.5029Z" fill="url(#paint11_linear_175_1407)"/>
<g id="Group">
<path id="Vector_19" d="M15.9935 95.8238H12.2567C12.1788 95.8238 12.1018 95.8298 12.0269 95.8387V99.6741C12.1018 99.683 12.1788 99.6889 12.2567 99.6889H15.9935C17.0688 99.6889 17.9403 98.8241 17.9403 97.7569C17.9403 96.6887 17.0688 95.8238 15.9935 95.8238Z" fill="#1F1F1F"/>
<path id="Vector_20" d="M15.9935 119.481C17.0688 119.481 17.9403 118.616 17.9403 117.549C17.9403 116.481 17.0688 115.616 15.9935 115.616H12.2567C12.1788 115.616 12.1018 115.622 12.0269 115.631V119.467C12.1018 119.476 12.1788 119.481 12.2567 119.481H15.9935Z" fill="#1F1F1F"/>
<path id="Vector_21" d="M15.9935 109.585C17.0688 109.585 17.9403 108.72 17.9403 107.652C17.9403 106.585 17.0688 105.72 15.9935 105.72H12.2567C12.1788 105.72 12.1018 105.726 12.0269 105.735V109.57C12.1018 109.579 12.1788 109.585 12.2567 109.585H15.9935Z" fill="#1F1F1F"/>
<path id="Vector_22" d="M34.5844 115.631C34.5084 115.622 34.4325 115.616 34.3545 115.616H30.6177C29.5424 115.616 28.6699 116.481 28.6699 117.549C28.6699 118.616 29.5424 119.481 30.6177 119.481H34.3545C34.4325 119.481 34.5084 119.476 34.5844 119.467V115.631Z" fill="#1F1F1F"/>
<path id="Vector_23" d="M30.6177 99.6889H34.3545C34.4325 99.6889 34.5084 99.683 34.5844 99.6741V95.8387C34.5084 95.8298 34.4325 95.8238 34.3545 95.8238H30.6177C29.5424 95.8238 28.6699 96.6887 28.6699 97.7569C28.6699 98.8241 29.5424 99.6889 30.6177 99.6889Z" fill="#1F1F1F"/>
<path id="Vector_24" d="M30.6177 109.585H34.3545C34.4325 109.585 34.5084 109.579 34.5844 109.57V105.735C34.5084 105.726 34.4325 105.72 34.3545 105.72H30.6177C29.5424 105.72 28.6699 106.585 28.6699 107.652C28.6699 108.72 29.5424 109.585 30.6177 109.585Z" fill="#1F1F1F"/>
<path id="Vector_25" d="M65.7272 99.9667C56.5857 99.9667 49.1492 107.347 49.1492 116.42V130H82.3062V116.419C82.3062 107.347 74.8687 99.9667 65.7272 99.9667Z" fill="#1F1F1F"/>
</g>
<path id="Vector_26" d="M65.7283 103.832C72.7341 103.832 78.4116 109.467 78.4116 116.419V130H53.0449V116.419C53.0449 109.467 58.7235 103.832 65.7283 103.832Z" fill="url(#paint12_linear_175_1407)"/>
<path id="Vector_27" d="M65.7273 103.832C65.0657 103.832 64.4151 103.882 63.7805 103.98V130H67.6752V103.98C67.0406 103.882 66.3899 103.832 65.7273 103.832Z" fill="#1F1F1F"/>
<path id="Vector_28" d="M26.0619 79H19.8898C19.6464 79 19.4492 78.6923 19.4492 78.3129V73.5001C19.4492 70.4624 21.0282 68 22.976 68C24.9237 68 26.5027 70.4624 26.5027 73.5001V78.3129C26.5025 78.6923 26.3052 79 26.0619 79Z" fill="url(#paint13_linear_175_1407)"/>
<path id="Vector_29" d="M111.711 79H105.539C105.296 79 105.099 78.6923 105.099 78.3129V73.5001C105.099 70.4624 106.678 68 108.625 68C110.573 68 112.152 70.4624 112.152 73.5001V78.3129C112.152 78.6923 111.955 79 111.711 79Z" fill="url(#paint14_linear_175_1407)"/>
<path id="Vector_30" d="M68.3829 58H62.2109C61.9675 58 61.7703 57.6923 61.7703 57.3129V52.5001C61.7703 49.4624 63.3492 47 65.297 47C67.2448 47 68.8237 49.4624 68.8237 52.5001V57.3129C68.8236 57.6923 68.6262 58 68.3829 58Z" fill="url(#paint15_linear_175_1407)"/>
</g>
<defs>
<linearGradient id="paint0_linear_175_1407" x1="77.9643" y1="7.76735" x2="64.6603" y2="-9.1616" gradientUnits="userSpaceOnUse">
<stop stop-color="#FFD098"/>
<stop offset="0.669382" stop-color="#764C2F"/>
</linearGradient>
<linearGradient id="paint1_linear_175_1407" x1="65.2666" y1="8.1705" x2="68.2304" y2="8.40798" gradientUnits="userSpaceOnUse">
<stop stop-color="#FFD37E"/>
<stop offset="1" stop-color="#764C2F"/>
</linearGradient>
<linearGradient id="paint2_linear_175_1407" x1="70.2963" y1="36.2375" x2="52.4139" y2="2.29922" gradientUnits="userSpaceOnUse">
<stop stop-color="#E1A17E"/>
<stop offset="1" stop-color="#764C2F"/>
</linearGradient>
<linearGradient id="paint3_linear_175_1407" x1="59.0063" y1="50.0317" x2="73.1889" y2="68.2349" gradientUnits="userSpaceOnUse">
<stop stop-color="#FFD37E"/>
<stop offset="1" stop-color="#764C2F"/>
</linearGradient>
<linearGradient id="paint4_linear_175_1407" x1="56.1882" y1="72.1663" x2="81.5905" y2="98.9735" gradientUnits="userSpaceOnUse">
<stop stop-color="#FFD37E"/>
<stop offset="1" stop-color="#764C2F"/>
</linearGradient>
<linearGradient id="paint5_linear_175_1407" x1="49.2222" y1="97.4781" x2="73.7217" y2="138.202" gradientUnits="userSpaceOnUse">
<stop stop-color="#FFD37E"/>
<stop offset="1" stop-color="#764C2F"/>
</linearGradient>
<linearGradient id="paint6_linear_175_1407" x1="112.047" y1="58.9083" x2="96.7957" y2="29.9619" gradientUnits="userSpaceOnUse">
<stop stop-color="#E1A17E"/>
<stop offset="1" stop-color="#764C2F"/>
</linearGradient>
<linearGradient id="paint7_linear_175_1407" x1="102.122" y1="70.6738" x2="114.22" y2="86.2007" gradientUnits="userSpaceOnUse">
<stop stop-color="#FFD37E"/>
<stop offset="1" stop-color="#764C2F"/>
</linearGradient>
<linearGradient id="paint8_linear_175_1407" x1="100.027" y1="94.7104" x2="128.956" y2="116.518" gradientUnits="userSpaceOnUse">
<stop stop-color="#FFD37E"/>
<stop offset="1" stop-color="#764C2F"/>
</linearGradient>
<linearGradient id="paint9_linear_175_1407" x1="27.2015" y1="58.9083" x2="11.9505" y2="29.9619" gradientUnits="userSpaceOnUse">
<stop stop-color="#E1A17E"/>
<stop offset="1" stop-color="#764C2F"/>
</linearGradient>
<linearGradient id="paint10_linear_175_1407" x1="17.4806" y1="70.6738" x2="29.5784" y2="86.2007" gradientUnits="userSpaceOnUse">
<stop stop-color="#FFD37E"/>
<stop offset="1" stop-color="#764C2F"/>
</linearGradient>
<linearGradient id="paint11_linear_175_1407" x1="15.183" y1="94.7104" x2="44.1121" y2="116.519" gradientUnits="userSpaceOnUse">
<stop stop-color="#FFD37E"/>
<stop offset="1" stop-color="#764C2F"/>
</linearGradient>
<linearGradient id="paint12_linear_175_1407" x1="69.2636" y1="120.563" x2="41.7799" y2="89.0192" gradientUnits="userSpaceOnUse">
<stop stop-color="#E1A17E"/>
<stop offset="1" stop-color="#764C2F"/>
</linearGradient>
<linearGradient id="paint13_linear_175_1407" x1="23.959" y1="75.0333" x2="12.7251" y2="66.5043" gradientUnits="userSpaceOnUse">
<stop stop-color="white"/>
<stop offset="1" stop-color="white"/>
</linearGradient>
<linearGradient id="paint14_linear_175_1407" x1="109.608" y1="75.0333" x2="98.3745" y2="66.5043" gradientUnits="userSpaceOnUse">
<stop stop-color="white"/>
<stop offset="1" stop-color="white"/>
</linearGradient>
<linearGradient id="paint15_linear_175_1407" x1="66.28" y1="54.0333" x2="55.0461" y2="45.5043" gradientUnits="userSpaceOnUse">
<stop stop-color="white"/>
<stop offset="1" stop-color="white"/>
</linearGradient>
<clipPath id="clip0_175_1407">
<rect width="130.993" height="130" fill="white" transform="translate(0.304199)"/>
</clipPath>
</defs>
</svg>
