<svg width="93" height="119" viewBox="0 0 93 119" fill="none" xmlns="http://www.w3.org/2000/svg">
<g id="maps-and-flags" clip-path="url(#clip0_175_2009)">
<path id="Vector" d="M92.899 14.2698C92.899 13.045 87.9573 7.86651 87.9573 7.86651L92.899 1.42068C93.2491 0.748097 92.6498 0 91.7608 0H30.1636H22.7342C21.3666 0 20.2578 0.912634 20.2578 2.03853C20.2578 3.16431 21.3666 4.41068 22.7342 4.41068V28.5397H91.7607C92.6497 28.5397 93.2491 27.7914 92.899 27.1189L87.9573 20.6944C87.9573 20.6944 92.899 15.4946 92.899 14.2698Z" fill="url(#paint0_linear_175_2009)"/>
<path id="Vector_2" d="M25.0808 35.9048H0.920898L0.920898 9.20636H25.0808V6.44446H27.6239V33.9408C27.6239 35.0254 26.4852 35.9048 25.0808 35.9048Z" fill="url(#paint1_linear_175_2009)"/>
<path id="Vector_3" d="M20.2578 1.84131C20.2578 3.19724 21.3571 4.29633 22.7133 4.29633H25.1687C26.5249 4.29633 27.6241 5.39543 27.6241 6.75136C27.6241 8.10729 26.5249 9.20639 25.1687 9.20639H20.2578V1.84131Z" fill="#FFC581"/>
<path id="Vector_4" d="M4.60407 9.20636H0.920898V35.9048H4.60407V9.20636Z" fill="url(#paint2_linear_175_2009)"/>
<path id="Vector_5" d="M1.33333 6H0.666667C0.29852 6 0 6.93706 0 8.09269V116.907C0 118.063 0.29852 119 0.666667 119H1.33333C1.70148 119 2 118.063 2 116.907V8.09269C1.99992 6.93706 1.70148 6 1.33333 6Z" fill="#FFE2AB"/>
<path id="Vector_6" d="M1.22777 6.44446H0.613885C0.274885 6.44446 0 7.06282 0 7.82541V9.20636H1.84158V7.82541C1.84158 7.06282 1.56677 6.44446 1.22777 6.44446Z" fill="#FFE2AB"/>
</g>
<defs>
<linearGradient id="paint0_linear_175_2009" x1="66.7672" y1="18.2479" x2="48.6974" y2="-36.2833" gradientUnits="userSpaceOnUse">
<stop stop-color="#E1A17E"/>
<stop offset="1" stop-color="#764C2F"/>
</linearGradient>
<linearGradient id="paint1_linear_175_2009" x1="17.9939" y1="25.281" x2="-13.1639" y2="-8.15714" gradientUnits="userSpaceOnUse">
<stop stop-color="#E1A17E"/>
<stop offset="1" stop-color="#764C2F"/>
</linearGradient>
<linearGradient id="paint2_linear_175_2009" x1="3.2758" y1="26.277" x2="-5.73123" y2="24.8058" gradientUnits="userSpaceOnUse">
<stop stop-color="#E1A17E"/>
<stop offset="1" stop-color="#764C2F"/>
</linearGradient>
<clipPath id="clip0_175_2009">
<rect width="93" height="119" fill="white"/>
</clipPath>
</defs>
</svg>
