<svg width="145" height="40" viewBox="0 0 145 40" fill="#0D0D0D" xmlns="http://www.w3.org/2000/svg">
<g id="Link &#226;&#134;&#146; SVG" clip-path="url(#clip0_640_1740)" fill="#5036D1">
<path id="Vector" fill-rule="evenodd" clip-rule="evenodd" d="M28.6043 8.65012L29.0562 8.66973C28.1946 6.81905 27.77 6.07388 26.4193 5.34586C26.7148 5.23556 26.9805 5.32135 27.554 5.48803C26.1686 4.29429 24.8824 1.56607 22.9731 1.98033C22.9124 1.99868 22.8475 1.99868 22.7869 1.98033C22.7546 1.9362 23.271 1.56362 23.2164 1.55626C22.7972 1.53999 22.3773 1.55391 21.9601 1.59793L22.5088 1.15181C20.2568 0.0879768 19.1221 -0.10567 17.2674 0.994932C14.5139 -1.50042 10.1142 1.60774 5.94794 0.578223C6.1565 1.34301 7.15958 1.80384 7.36815 2.56127C5.56557 2.35781 4.17019 2.9216 3.00075 3.1177C3.43277 3.46332 4.33654 3.85306 3.68851 4.12025C3.10503 4.36537 2.12429 4.36537 1.59295 4.36537C2.73012 5.15957 4.53517 5.78954 2.72018 6.59109L0.00390625 7.64512C0.329164 8.33391 0.877882 8.47363 1.36204 8.88789L0.44586 9.77523L2.57866 9.79484L1.55571 11.1602L4.53517 10.4665C4.47571 11.0195 4.37193 11.567 4.22481 12.1039C4.15529 12.3809 4.10067 12.6162 4.03115 12.8834C3.96163 13.1506 3.74562 13.582 3.72824 13.7266C3.62892 14.435 4.60221 15.6876 4.77601 16.7024C4.75862 16.8477 4.73209 16.9918 4.69656 17.1338L3.3558 14.5968H2.92626L4.49048 17.5579C4.43834 18.2933 2.78474 20.8572 3.02061 21.4259C3.05041 21.4995 3.12986 21.5338 3.17952 21.5828C3.77789 22.1466 4.01873 22.1172 5.0392 22.0534C5.9827 21.9971 5.53578 23.6786 5.53578 24.2595L6.51403 24.4311L5.938 25.0758C6.55376 25.4778 6.99075 25.6518 6.9535 26.4804C6.93116 27.0196 6.57611 28.0369 6.55624 28.4413C6.49417 29.7601 8.04597 30.5445 9.28742 30.319C10.4196 30.1106 12.2023 29.4047 13.3767 29.7233C14.6579 30.069 14.5536 32.0863 14.5536 33.4296L12.9944 33.8267C12.9944 34.5817 13.1433 34.893 13.1458 35.5426C12.7238 35.5765 12.3072 35.6587 11.9044 35.7877C11.8989 36.1278 11.8748 36.4674 11.8324 36.8049C11.6983 37.7094 11.2712 37.7192 10.8914 39.3003C12.2718 39.3003 22.5882 36.4103 24.5472 35.8048C26.1537 35.3146 27.3554 35.2312 28.793 34.2924C28.793 32.8879 28.2765 33.1477 28.1151 32.1819C28.0208 31.6181 28.1151 31.574 27.8942 31.0078C27.7576 30.6744 27.549 30.3018 27.3852 29.9807L26.5534 30.292C26.4767 30.2116 26.4085 30.1238 26.3498 30.0297C25.9525 29.3753 25.8532 28.4585 25.7216 27.7256C25.6149 27.0613 25.9277 25.4705 26.1313 24.8503C26.464 23.8281 26.8166 23.5658 27.3306 22.6957C28.4429 20.8107 28.4503 18.7884 28.6812 17.2147C28.8178 16.2906 29.1133 15.3028 29.2101 14.3983C29.4038 12.6236 30.0766 10.1478 28.6142 8.66973" fill="#FFF"/>
<path id="Vector_2" d="M77.047 4.94461H78.9588V8.59939C79.2914 8.30635 79.6684 8.0665 80.0761 7.88853C80.4353 7.73147 80.823 7.64808 81.2158 7.64341C81.5688 7.63599 81.9196 7.70076 82.246 7.83364C82.5725 7.96652 82.8676 8.16464 83.1127 8.41555C83.5514 8.86004 83.7707 9.5137 83.7707 10.3765V15.3207H81.8886V12.0434C81.9113 11.4548 81.8697 10.8656 81.7645 10.2858C81.7044 10.0149 81.553 9.77204 81.335 9.59704C81.119 9.44212 80.8569 9.36276 80.5901 9.37153C80.2221 9.36603 79.8662 9.5013 79.5969 9.74902C79.3078 10.029 79.1091 10.3872 79.0259 10.7785C78.9525 11.2883 78.9251 11.8034 78.9439 12.3179V15.3207H77.047V4.94461ZM75.3885 8.89354L74.2141 10.0628C73.7373 9.59214 73.3053 9.35682 72.913 9.35682C72.737 9.34719 72.5627 9.39452 72.4164 9.49164C72.3607 9.52755 72.315 9.57662 72.2833 9.6344C72.2517 9.69219 72.2351 9.75686 72.2352 9.82255C72.2358 9.92595 72.2767 10.0251 72.3494 10.0995C72.5191 10.2445 72.711 10.362 72.918 10.4476L73.6132 10.7908C74.3581 11.1462 74.8546 11.509 75.1253 11.8791C75.4414 12.3291 75.5818 12.8769 75.5207 13.4212C75.4595 13.9655 75.2009 14.4695 74.7926 14.8402C74.2398 15.3024 73.5297 15.5398 72.8063 15.5045C72.2903 15.5203 71.7783 15.4113 71.3148 15.187C70.8514 14.9627 70.4505 14.6299 70.1471 14.2176L71.3215 12.9577C71.5417 13.2124 71.8088 13.4236 72.1086 13.5803C72.3512 13.7244 72.6255 13.8085 72.9081 13.8254C73.1256 13.8365 73.3404 13.7733 73.5164 13.6465C73.5842 13.6006 73.6402 13.5397 73.6798 13.4686C73.7195 13.3975 73.7417 13.3182 73.7448 13.2371C73.7448 12.9479 73.4692 12.666 72.913 12.3939L72.2724 12.0752C71.0459 11.4673 70.4318 10.7066 70.4301 9.79314C70.4279 9.50622 70.4886 9.22222 70.6082 8.96071C70.7278 8.69919 70.9034 8.46637 71.1229 8.27828C71.6092 7.85035 72.2447 7.62539 72.8956 7.65077C73.3793 7.65043 73.8563 7.76281 74.2878 7.97876C74.7192 8.19471 75.0929 8.50813 75.3785 8.89354H75.3885ZM67.1254 7.84441H69.0273V15.3207H67.1279L67.1254 7.84441ZM68.0788 4.77057C68.2389 4.76891 68.3975 4.79983 68.5449 4.86141C68.6923 4.92298 68.8252 5.01389 68.9354 5.12845C69.1629 5.35755 69.2903 5.66557 69.2903 5.98638C69.2903 6.30719 69.1629 6.61521 68.9354 6.84431C68.8256 6.95687 68.6936 7.04603 68.5476 7.10632C68.4016 7.1666 68.2446 7.19673 68.0863 7.19484C67.9251 7.19707 67.7651 7.16644 67.6165 7.10486C67.4678 7.04328 67.3336 6.95208 67.2222 6.83696C67.1052 6.72286 67.0129 6.58643 66.951 6.43598C66.8892 6.28553 66.8589 6.12422 66.8622 5.96187C66.8635 5.64547 66.9918 5.34247 67.2189 5.1192C67.4459 4.89592 67.7534 4.77057 68.0739 4.77057H68.0788ZM63.7015 4.95441H65.6009V15.3207H63.7015V4.95441ZM58.1026 9.4132C57.8261 9.40422 57.5508 9.45234 57.2943 9.55449C57.0378 9.65664 56.8057 9.81056 56.6129 10.0064C56.4183 10.2025 56.2659 10.4353 56.1648 10.691C56.0636 10.9467 56.0159 11.2199 56.0244 11.4943C56.0143 11.776 56.0626 12.0568 56.1664 12.3194C56.2701 12.582 56.4271 12.8209 56.6278 13.0214C56.8248 13.2172 57.0604 13.3709 57.3201 13.4729C57.5798 13.575 57.858 13.6232 58.1374 13.6146C58.4093 13.6231 58.6802 13.5759 58.9327 13.4759C59.1853 13.3759 59.4141 13.2253 59.6048 13.0337C59.799 12.8298 59.9499 12.5897 60.0489 12.3275C60.1478 12.0653 60.1926 11.7861 60.1808 11.5065C60.1922 11.2292 60.1466 10.9524 60.0467 10.6929C59.9469 10.4334 59.7948 10.1965 59.5998 9.99659C59.4043 9.80293 59.1704 9.65117 58.9128 9.55079C58.6552 9.45041 58.3794 9.40357 58.1026 9.4132ZM60.0889 7.84441H61.9759V14.2397C61.9759 15.5045 61.7169 16.4343 61.1988 17.0292C60.5052 17.8364 59.4607 18.2401 58.0654 18.2401C57.4275 18.2566 56.7915 18.1637 56.1858 17.9655C55.6993 17.7981 55.2595 17.5201 54.902 17.1539C54.5444 16.7877 54.2791 16.3436 54.1275 15.8575H56.233C56.4297 16.0732 56.6781 16.2367 56.9555 16.333C57.2911 16.4456 57.644 16.4995 57.9983 16.4923C58.4258 16.5067 58.8508 16.4228 59.2398 16.2472C59.5206 16.123 59.7532 15.9123 59.9027 15.6467C60.055 15.2455 60.1185 14.8167 60.0889 14.3892C59.7908 14.6963 59.4315 14.9391 59.0337 15.1025C58.6378 15.2527 58.2164 15.3268 57.7922 15.3207C57.3074 15.3296 56.826 15.2377 56.3795 15.0511C55.9329 14.8644 55.5311 14.5871 55.2001 14.2372C54.8489 13.8703 54.5749 13.4384 54.3938 12.9663C54.2127 12.4943 54.1281 11.9915 54.1449 11.4869C54.1449 10.3005 54.5173 9.34456 55.2622 8.62635C55.5789 8.31094 55.9567 8.06161 56.373 7.89318C56.7893 7.72474 57.2356 7.64064 57.6855 7.64586C58.1115 7.64682 58.5333 7.73009 58.9269 7.89099C59.3579 8.07986 59.7514 8.34298 60.0889 8.66803V7.84441ZM45.8918 7.84441H47.7912V8.60429C48.1424 8.30271 48.5374 8.05483 48.9631 7.86892C49.3056 7.73236 49.6713 7.66164 50.0407 7.66057C50.397 7.65416 50.7508 7.71978 51.0805 7.85342C51.4101 7.98705 51.7086 8.18586 51.9575 8.43761C52.3978 8.87883 52.6179 9.53249 52.6179 10.3986V15.3207H50.7334V12.0483C50.757 11.4533 50.7162 10.8576 50.6117 10.2711C50.5489 10.0079 50.3996 9.77266 50.1872 9.60194C49.9719 9.44528 49.7097 9.36418 49.4423 9.37153C49.0738 9.36592 48.7176 9.5022 48.4491 9.75147C48.156 10.0387 47.9563 10.4056 47.8756 10.8055C47.8033 11.3079 47.7759 11.8156 47.7937 12.3228V15.3207H45.8943L45.8918 7.84441ZM38.6914 5.20689H44.2878V7.09679H40.6454V8.9156H44.3002V10.7761H40.6454V13.4332H44.3002V15.3207H38.7038L38.6914 5.20689Z" fill="#FFF"/>
<path id="Vector_3" fill-rule="evenodd" clip-rule="evenodd" d="M89.6552 8.60889C90.2735 8.60889 90.8779 8.7899 91.3919 9.12902C91.906 9.46815 92.3067 9.95017 92.5433 10.5141C92.7799 11.0781 92.8418 11.6986 92.7211 12.2973C92.6005 12.896 92.3028 13.4459 91.8656 13.8775C91.4285 14.3092 90.8715 14.6031 90.2651 14.7222C89.6587 14.8413 89.0302 14.7802 88.459 14.5466C87.8878 14.313 87.3996 13.9174 87.0561 13.4099C86.7126 12.9023 86.5293 12.3056 86.5293 11.6952C86.5293 10.8767 86.8586 10.0916 87.4449 9.51285C88.0311 8.93405 88.8262 8.60889 89.6552 8.60889Z" fill="#764C2F"/>
<path id="Vector_4" d="M141.089 9.38297C140.814 9.3757 140.54 9.42686 140.286 9.533C140.033 9.63915 139.805 9.7978 139.619 9.99823C139.226 10.4288 139.02 10.995 139.046 11.5744C139.024 12.163 139.238 12.7365 139.642 13.1701C139.827 13.3714 140.054 13.5313 140.307 13.6391C140.56 13.7468 140.833 13.8001 141.109 13.7952C141.387 13.8032 141.664 13.7525 141.921 13.6464C142.178 13.5403 142.409 13.3812 142.599 13.1799C143.005 12.7412 143.219 12.1611 143.192 11.567C143.204 11.2778 143.158 10.9891 143.056 10.7177C142.954 10.4463 142.799 10.1975 142.599 9.98598C142.407 9.78837 142.175 9.63263 141.918 9.52877C141.662 9.42492 141.386 9.37525 141.109 9.38297M143.09 7.8436H144.99V15.3321H143.09V14.5355C142.767 14.8513 142.387 15.1056 141.97 15.2855C141.585 15.4406 141.172 15.5189 140.756 15.5159C140.275 15.5186 139.799 15.4199 139.36 15.2263C138.92 15.0326 138.528 14.7487 138.209 14.3933C137.49 13.641 137.103 12.6376 137.134 11.6038C137.093 10.5607 137.466 9.54312 138.174 8.76772C138.49 8.41541 138.879 8.13433 139.315 7.94358C139.75 7.75283 140.223 7.65687 140.699 7.66221C141.139 7.65763 141.574 7.74102 141.98 7.90733C142.396 8.08546 142.773 8.34096 143.09 8.65986V7.8436ZM129.208 4.95605H131.1V10.9322L133.916 7.8436H136.29L133.04 11.4199L136.699 15.3419H134.328L131.1 11.8808V15.3321H129.201L129.208 4.95605ZM120.635 4.95605H122.537V8.61084C122.869 8.3178 123.246 8.07794 123.654 7.89998C124.013 7.74318 124.399 7.65979 124.791 7.65486C125.144 7.64744 125.495 7.7122 125.822 7.84508C126.148 7.97797 126.443 8.17609 126.688 8.427C127.13 8.87067 127.349 9.52269 127.349 10.388V15.3321H125.479V12.0548C125.502 11.4663 125.46 10.877 125.355 10.2973C125.295 10.0263 125.143 9.78348 124.925 9.60849C124.709 9.45357 124.447 9.37421 124.181 9.38297C123.812 9.37697 123.456 9.51231 123.187 9.76046C122.898 10.0404 122.7 10.3987 122.616 10.79C122.543 11.2997 122.516 11.8148 122.534 12.3294V15.3321H120.633L120.635 4.95605ZM118.897 9.36827L117.315 10.2286C117.074 9.95964 116.78 9.74195 116.451 9.58888C116.127 9.46298 115.78 9.40215 115.431 9.40994C115.114 9.39495 114.797 9.4425 114.498 9.54982C114.2 9.65714 113.926 9.82208 113.693 10.035C113.475 10.2418 113.303 10.4917 113.189 10.7683C113.076 11.0449 113.022 11.3421 113.032 11.6406C113.023 11.9288 113.074 12.216 113.183 12.4836C113.292 12.7512 113.456 12.9934 113.666 13.1946C113.889 13.3985 114.152 13.5566 114.438 13.6597C114.724 13.7628 115.027 13.8088 115.332 13.7952C115.708 13.8136 116.083 13.7454 116.427 13.5961C116.772 13.4468 117.077 13.2204 117.318 12.9348L118.808 13.9521C117.993 14.9947 116.845 15.5159 115.364 15.5159C114.028 15.5159 112.983 15.127 112.228 14.3492C111.794 13.9192 111.469 13.3947 111.278 12.8179C111.088 12.2412 111.037 11.6283 111.13 11.0285C111.223 10.4288 111.457 9.85895 111.814 9.36495C112.171 8.87094 112.64 8.46655 113.184 8.18432C113.864 7.83083 114.623 7.65132 115.391 7.66221C116.102 7.64684 116.806 7.79893 117.445 8.10588C118.032 8.39664 118.535 8.83125 118.904 9.36827H118.897ZM105.924 9.42465C105.648 9.41805 105.375 9.46852 105.12 9.5728C104.866 9.67709 104.636 9.83287 104.447 10.0301C104.249 10.2383 104.095 10.483 103.994 10.7501C103.892 11.0173 103.845 11.3015 103.856 11.5866C103.843 11.8743 103.888 12.1616 103.988 12.4321C104.088 12.7026 104.242 12.9509 104.439 13.1628C104.63 13.3623 104.861 13.5195 105.118 13.6239C105.375 13.7283 105.651 13.7775 105.929 13.7682C106.207 13.775 106.483 13.7242 106.739 13.619C106.996 13.5139 107.227 13.3568 107.419 13.1579C107.617 12.9474 107.772 12.7003 107.873 12.4306C107.975 12.1609 108.021 11.8741 108.01 11.5866C108.022 11.3014 107.977 11.0166 107.877 10.7487C107.777 10.4807 107.625 10.2348 107.429 10.0252C107.236 9.8271 107.003 9.67127 106.745 9.56781C106.487 9.46435 106.21 9.41557 105.931 9.42465H105.924ZM105.897 7.66221C106.606 7.66041 107.303 7.84302 107.918 8.19168C108.528 8.52864 109.036 9.02064 109.39 9.61669C109.743 10.2127 109.928 10.8912 109.926 11.5817C109.929 12.2761 109.745 12.9588 109.393 13.5599C109.048 14.1598 108.545 14.6562 107.938 14.9963C107.318 15.3431 106.616 15.5223 105.904 15.5159C105.384 15.5243 104.869 15.4272 104.389 15.2307C103.909 15.0342 103.475 14.7425 103.113 14.3737C102.739 14.013 102.443 13.5806 102.244 13.103C102.045 12.6254 101.947 12.1128 101.956 11.5964C101.956 10.5618 102.37 9.56899 103.108 8.83439C103.846 8.09979 104.849 7.68287 105.897 7.67447V7.66221ZM95.543 5.21098H101.214V7.10823H99.3443V15.3321H97.358V7.10823H95.543V5.21098Z" fill="#764C2F"/>
<path id="Vector_5" d="M142.545 22.5513C142.2 22.5547 141.861 22.6469 141.563 22.8188C141.265 22.9908 141.017 23.2365 140.845 23.5319C140.673 23.8375 140.587 24.1828 140.596 24.532C140.592 24.7887 140.64 25.0437 140.739 25.2811C140.838 25.5184 140.986 25.7332 141.172 25.9122C141.35 26.0932 141.564 26.2364 141.8 26.3329C142.036 26.4295 142.29 26.4773 142.545 26.4735C142.894 26.4749 143.237 26.3843 143.538 26.2112C143.84 26.0487 144.088 25.8057 144.256 25.5101C144.428 25.2038 144.514 24.8576 144.504 24.5075C144.509 24.1647 144.421 23.8267 144.249 23.5292C144.076 23.2316 143.826 22.9853 143.524 22.8161C143.221 22.6447 142.879 22.5543 142.53 22.5538M142.506 22.1076C142.834 22.0955 143.162 22.1504 143.468 22.2689C143.775 22.3874 144.053 22.567 144.286 22.7965C144.739 23.2521 144.993 23.8652 144.993 24.5039C144.993 25.1425 144.739 25.7556 144.286 26.2112C143.822 26.6604 143.198 26.912 142.548 26.912C141.898 26.912 141.274 26.6604 140.81 26.2112C140.58 25.9918 140.399 25.7283 140.276 25.437C140.154 25.1457 140.093 24.8327 140.097 24.5173C140.096 24.0878 140.208 23.6655 140.422 23.2916C140.629 22.9233 140.935 22.6187 141.306 22.4116C141.676 22.2027 142.095 22.096 142.52 22.1027L142.506 22.1076ZM137.766 26.8069H137.306V22.2179H139.635V22.6641H137.773L137.766 26.8069ZM133.94 22.5513C133.594 22.5547 133.256 22.6469 132.957 22.8188C132.659 22.9908 132.412 23.2365 132.239 23.5319C132.067 23.8375 131.982 24.1828 131.991 24.532C131.986 24.7887 132.035 25.0437 132.134 25.2811C132.233 25.5184 132.38 25.7332 132.567 25.9122C132.746 26.0947 132.961 26.2387 133.199 26.3353C133.437 26.4319 133.692 26.479 133.95 26.4735C134.298 26.4749 134.641 26.3843 134.943 26.2112C135.243 26.048 135.492 25.8052 135.66 25.5101C135.832 25.2036 135.917 24.8576 135.909 24.5075C135.913 24.1633 135.823 23.8244 135.648 23.5266C135.473 23.2288 135.22 22.9833 134.915 22.8161C134.619 22.6461 134.283 22.5549 133.94 22.5513ZM133.915 22.1052C134.241 22.0958 134.566 22.1523 134.87 22.2712C135.173 22.39 135.449 22.5688 135.68 22.7965C136.133 23.2521 136.387 23.8652 136.387 24.5039C136.387 25.1425 136.133 25.7556 135.68 26.2112C135.216 26.6604 134.592 26.912 133.942 26.912C133.292 26.912 132.668 26.6604 132.204 26.2112C131.975 25.9918 131.793 25.7283 131.671 25.437C131.548 25.1457 131.487 24.8327 131.492 24.5173C131.491 24.0882 131.602 23.6661 131.814 23.2916C132.022 22.9232 132.329 22.6187 132.701 22.4116C133.07 22.2027 133.489 22.096 133.915 22.1027V22.1052ZM127.881 22.2204H128.353V23.9364L130.215 22.2204H130.851L128.616 24.2673L131.027 26.7971H130.406L128.363 24.6571V26.7971H127.871L127.881 22.2204ZM126.95 23.0637L126.58 23.3431C126.392 23.0901 126.144 22.8865 125.858 22.7499C125.567 22.6151 125.248 22.5472 124.927 22.5513C124.567 22.5495 124.213 22.639 123.899 22.8112C123.589 22.9802 123.331 23.2294 123.154 23.5319C122.984 23.8391 122.899 24.1847 122.906 24.5345C122.9 24.7944 122.948 25.0527 123.048 25.2932C123.148 25.5337 123.297 25.7511 123.487 25.9318C123.68 26.1183 123.91 26.2642 124.162 26.3607C124.414 26.4571 124.684 26.5022 124.954 26.4932C125.266 26.4982 125.574 26.4328 125.856 26.3019C126.138 26.171 126.386 25.9782 126.58 25.7381L126.95 26.0127C126.719 26.3023 126.422 26.5341 126.084 26.6893C125.721 26.8549 125.326 26.9386 124.927 26.9344C124.565 26.9515 124.204 26.8881 123.871 26.7489C123.537 26.6098 123.24 26.3984 123 26.1304C122.602 25.6731 122.391 25.0856 122.409 24.483C122.403 24.1678 122.464 23.8549 122.588 23.5644C122.712 23.2739 122.896 23.0123 123.129 22.7965C123.365 22.5687 123.646 22.3904 123.953 22.272C124.261 22.1536 124.589 22.0977 124.919 22.1076C125.324 22.1012 125.724 22.185 126.091 22.3528C126.431 22.5173 126.726 22.7604 126.95 23.0612V23.0637ZM118.558 21.1025H118.97C119.04 21.2123 119.142 21.298 119.263 21.3477C119.396 21.4079 119.542 21.4365 119.688 21.431C119.83 21.4358 119.971 21.4116 120.102 21.3599C120.218 21.3034 120.318 21.2191 120.393 21.1148H120.795C120.77 21.212 120.726 21.3034 120.664 21.3833C120.603 21.4633 120.526 21.5304 120.438 21.5806C120.215 21.717 119.955 21.7837 119.693 21.7718C119.432 21.7803 119.174 21.7166 118.948 21.5879C118.854 21.5382 118.771 21.4706 118.704 21.3889C118.638 21.3073 118.588 21.2132 118.558 21.1123V21.1025ZM121.5 26.7922H121.004V23.2867L117.94 26.802H117.836V22.2179H118.302V25.7921L121.386 22.2179H121.49L121.5 26.7922ZM116.713 26.7922H116.229V23.2867L113.165 26.8118H113.061V22.2179H113.528V25.7921L116.612 22.2179H116.713V26.7922ZM112.279 26.7922H111.782L110.243 23.2524L108.671 26.802H108.175L110.198 22.2179H110.303L112.279 26.7922ZM105.987 26.7922H105.525V22.2179H107.852V22.6641H105.99L105.987 26.7922ZM101.106 22.2179H101.57V24.1398H103.939V22.2179H104.403V26.802H103.939V24.5958H101.57V26.802H101.106V22.2179ZM98.1712 23.1813L97.3742 24.8483H98.9657L98.1712 23.1813ZM98.2283 22.2179L100.396 26.802H99.8993L99.1743 25.2944H97.1631L96.4406 26.802H95.9217L98.1141 22.2179H98.2283ZM91.594 23.1813L90.7995 24.8483H92.391L91.594 23.1813ZM91.6536 22.2179L93.8187 26.802H93.3221L92.5971 25.2944H90.5859L89.8609 26.802H89.3445L91.5369 22.2179H91.6536ZM88.977 26.802H88.4805L86.9436 23.2524L85.3719 26.802H84.8753L86.8989 22.2179H87.0007L88.977 26.802ZM81.8313 22.5513C81.4859 22.5547 81.1474 22.6469 80.8491 22.8188C80.5509 22.9908 80.3032 23.2365 80.1305 23.5319C79.959 23.8375 79.8733 24.1828 79.8822 24.532C79.8776 24.7887 79.9263 25.0437 80.0254 25.2811C80.1244 25.5184 80.2718 25.7332 80.4583 25.9122C80.6372 26.0947 80.8525 26.2387 81.0904 26.3353C81.3284 26.4319 81.584 26.479 81.8412 26.4735C82.19 26.4749 82.5328 26.3843 82.8344 26.2112C83.1349 26.048 83.3834 25.8052 83.5519 25.5101C83.7233 25.2036 83.809 24.8576 83.8002 24.5075C83.8047 24.1633 83.7147 23.8244 83.5399 23.5266C83.365 23.2288 83.1118 22.9833 82.8071 22.8161C82.5104 22.6461 82.1742 22.5549 81.8313 22.5513ZM81.804 22.1052C82.1304 22.0954 82.4555 22.1517 82.7591 22.2705C83.0627 22.3894 83.3384 22.5684 83.5693 22.7965C84.0237 23.2515 84.2785 23.8648 84.2785 24.5039C84.2785 25.1429 84.0237 25.7562 83.5693 26.2112C83.1052 26.6604 82.4812 26.912 81.8313 26.912C81.1814 26.912 80.5574 26.6604 80.0933 26.2112C79.8634 25.9921 79.6815 25.7287 79.5589 25.4373C79.4363 25.1459 79.3757 24.8328 79.3807 24.5173C79.3789 24.0881 79.4902 23.6657 79.7035 23.2916C79.9111 22.9232 80.2179 22.6187 80.5899 22.4116C80.959 22.2026 81.3785 22.0959 81.804 22.1027V22.1052ZM75.7731 22.2204H76.2448V23.9364L78.107 22.2204H78.7326L76.4981 24.2746L78.9114 26.8045H78.2907L76.2473 24.6644V26.8045H75.7755L75.7731 22.2204ZM69.7148 26.3706H71.7011V22.2179H72.1679V26.3681H74.184V22.2179H74.6508V26.802H69.248V22.2179H69.7148V26.3706ZM63.0408 22.2179H63.5076V24.1398H65.8738V22.2179H66.3381V26.802H65.8738V24.5958H63.5076V26.802H63.0408V22.2179ZM58.9813 21.1123H59.3935C59.4629 21.2221 59.5653 21.3078 59.6864 21.3575C59.8194 21.4177 59.9648 21.4463 60.111 21.4408C60.2527 21.4456 60.3939 21.4214 60.5256 21.3697C60.6416 21.3132 60.7415 21.2289 60.8161 21.1246H61.2184C61.1942 21.2222 61.15 21.3139 61.0885 21.3941C61.027 21.4742 60.9495 21.541 60.8608 21.5904C60.6378 21.7268 60.3781 21.7935 60.116 21.7816C59.8552 21.7901 59.5971 21.7264 59.3711 21.5977C59.2763 21.547 59.193 21.4778 59.126 21.3944C59.059 21.311 59.0098 21.215 58.9813 21.1123ZM61.9235 26.802H61.4269V23.2867L58.3631 26.8118H58.2588V22.2179H58.7256V25.7921L61.8267 22.2179H61.931L61.9235 26.802ZM55.3215 23.1813L54.5245 24.8483H56.116L55.3215 23.1813ZM55.3786 22.2179L57.5462 26.802H57.0496L56.3246 25.2944H54.3135L53.5909 26.802H53.072L55.2644 22.2179H55.3786ZM52.7021 26.802H52.2055L50.6537 23.2524L49.082 26.802H48.5855L50.609 22.2179H50.7133L52.7021 26.802ZM44.5086 22.2179H44.9753V24.1398H47.3415V22.2179H47.8058V26.802H47.3415V24.5958H44.9753V26.802H44.5086V22.2179ZM41.1418 22.5513C40.7964 22.5547 40.4579 22.6469 40.1596 22.8188C39.8614 22.9908 39.6137 23.2365 39.441 23.5319C39.2695 23.8375 39.1837 24.1828 39.1927 24.532C39.1882 24.7885 39.2367 25.0432 39.3353 25.2805C39.4339 25.5178 39.5806 25.7328 39.7662 25.9122C39.9459 26.0945 40.1616 26.2384 40.3999 26.335C40.6382 26.4316 40.8941 26.4787 41.1517 26.4735C41.5004 26.4746 41.8432 26.3841 42.1448 26.2112C42.4454 26.048 42.6939 25.8052 42.8624 25.5101C43.0338 25.2036 43.1195 24.8576 43.1107 24.5075C43.1152 24.1633 43.0252 23.8244 42.8503 23.5266C42.6755 23.2288 42.4223 22.9833 42.1175 22.8161C41.8207 22.6466 41.4846 22.5555 41.1418 22.5513ZM41.1144 22.1052C41.4409 22.0954 41.7659 22.1517 42.0695 22.2705C42.3731 22.3894 42.6489 22.5684 42.8798 22.7965C43.3342 23.2515 43.589 23.8648 43.589 24.5039C43.589 25.1429 43.3342 25.7562 42.8798 26.2112C42.4157 26.6604 41.7917 26.912 41.1418 26.912C40.4919 26.912 39.8679 26.6604 39.4037 26.2112C39.1746 25.9916 38.9935 25.7281 38.8713 25.4368C38.7492 25.1455 38.6887 24.8326 38.6936 24.5173C38.6919 24.0881 38.8031 23.6657 39.0164 23.2916C39.2241 22.9232 39.5308 22.6187 39.9028 22.4116C40.2711 22.2027 40.6897 22.096 41.1144 22.1027V22.1052Z" fill="#FFF"/>
<path id="Vector_6" d="M99.4307 30.7871L98.6362 32.4516H100.228L99.4307 30.7871ZM99.4903 29.8213L101.655 34.4054H101.159L100.434 32.9002H98.4227L97.7001 34.4054H97.1812L99.3736 29.8213H99.4903ZM94.3532 32.1967V33.9592H94.9292C95.1813 33.971 95.4335 33.9386 95.6741 33.8636C95.8276 33.7945 95.9595 33.6861 96.0565 33.5498C96.1505 33.417 96.2 33.2584 96.198 33.0963C96.2027 32.9008 96.1306 32.7111 95.9969 32.5668C95.8486 32.4088 95.6543 32.3 95.4407 32.2555C95.168 32.2069 94.8909 32.1872 94.6139 32.1967H94.3532ZM94.3532 30.2699V31.7407H94.6015C94.8442 31.751 95.0868 31.7204 95.3191 31.65C95.4641 31.5946 95.589 31.4974 95.6776 31.3711C95.7661 31.2448 95.8142 31.0951 95.8156 30.9416C95.8198 30.8485 95.802 30.7558 95.7637 30.6707C95.7253 30.5856 95.6675 30.5105 95.5947 30.4513C95.3828 30.3134 95.1299 30.2503 94.8771 30.2723L94.3532 30.2699ZM93.9013 29.8213H94.82C95.1078 29.8107 95.3951 29.8539 95.6667 29.9487C95.8591 30.0309 96.0212 30.1695 96.131 30.3459C96.2468 30.5224 96.3072 30.7288 96.3048 30.9391C96.3061 31.1356 96.2556 31.3291 96.1583 31.5005C96.0491 31.6721 95.8946 31.8111 95.7114 31.9025C95.913 31.9636 96.1015 32.0609 96.2675 32.1893C96.3992 32.2959 96.5031 32.4321 96.5704 32.5864C96.6452 32.7445 96.6834 32.917 96.6822 33.0914C96.6845 33.2665 96.6491 33.44 96.5785 33.6006C96.5079 33.7611 96.4036 33.9051 96.2725 34.023C95.9721 34.2885 95.5776 34.4259 95.175 34.4054H93.9013V29.8213ZM90.4973 30.1498C90.1515 30.1509 89.8121 30.2421 89.5134 30.4143C89.2148 30.5865 88.9675 30.8335 88.7965 31.1303C88.6202 31.4354 88.5302 31.7817 88.5358 32.1329C88.5319 32.3895 88.5809 32.6442 88.68 32.8815C88.779 33.1188 88.926 33.3337 89.1118 33.5131C89.2918 33.6949 89.5076 33.8385 89.7458 33.9351C89.9841 34.0316 90.2398 34.079 90.4973 34.0744C90.8459 34.0746 91.1884 33.9841 91.4904 33.8121C91.7912 33.648 92.0396 33.4044 92.208 33.1086C92.3795 32.803 92.4652 32.4577 92.4563 32.1084C92.4648 31.7654 92.379 31.4265 92.208 31.1279C92.035 30.8312 91.7846 30.5858 91.483 30.417C91.1837 30.2445 90.8438 30.1524 90.4973 30.1498ZM90.47 29.7011C90.7968 29.692 91.122 29.7491 91.4257 29.8688C91.7293 29.9885 92.0048 30.1684 92.2353 30.3973C92.6858 30.8549 92.9378 31.4679 92.9378 32.106C92.9378 32.7441 92.6858 33.357 92.2353 33.8146C91.7712 34.2637 91.1472 34.5153 90.4973 34.5153C89.8474 34.5153 89.2234 34.2637 88.7593 33.8146C88.53 33.5956 88.3487 33.3325 88.2265 33.0416C88.1044 32.7506 88.044 32.438 88.0492 32.1231C88.0471 31.6938 88.1583 31.2714 88.3719 30.8974C88.5789 30.5285 88.8858 30.2237 89.2583 30.0174C89.6264 29.8077 90.0451 29.7002 90.47 29.706V29.7011ZM83.8357 29.8164H84.3025V31.7383H86.6687V29.8164H87.133V34.4005H86.6687V32.1942H84.3025V34.4005H83.8357V29.8164ZM80.9009 30.7822L80.1064 32.4467H81.6905L80.9009 30.7822ZM80.958 29.8164L83.1256 34.4005H82.629L81.9065 32.8953H79.8954L79.1704 34.4005H78.6539L80.8438 29.8164H80.958ZM75.8185 32.1918V33.9543H76.3871C76.6392 33.968 76.8917 33.9356 77.1319 33.8587C77.2842 33.7944 77.4144 33.688 77.5068 33.5523C77.6027 33.4176 77.6523 33.256 77.6484 33.0914C77.6541 32.8956 77.585 32.7048 77.4547 32.557C77.3249 32.4095 77.151 32.3065 76.9581 32.2629C76.6703 32.2074 76.3772 32.1835 76.0841 32.1918H75.8185ZM75.3517 34.398V29.8139H77.6806V30.2625H75.8185V31.7334H76.0394C76.4632 31.7118 76.8874 31.7633 77.2933 31.8853C77.5434 31.9748 77.7582 32.1405 77.9066 32.3585C78.0793 32.6088 78.157 32.9112 78.1261 33.2125C78.0952 33.5138 77.9577 33.7947 77.7377 34.0058C77.5891 34.1418 77.4142 34.2468 77.2235 34.3146C77.0328 34.3824 76.8302 34.4116 76.6279 34.4005L75.3517 34.398ZM70.8279 29.8286H71.3443L72.7546 32.9419L74.0407 29.8139H74.5522L72.7869 33.9323C72.7236 34.1089 72.6045 34.2607 72.4471 34.3654C72.2897 34.47 72.1024 34.5218 71.9129 34.5132C71.7473 34.5153 71.5834 34.4801 71.4337 34.4103C71.2171 34.2853 71.0246 34.1235 70.8651 33.9323L71.2028 33.6577C71.3376 33.8091 71.494 33.9404 71.6671 34.0475C71.7472 34.0742 71.8309 34.0891 71.9154 34.0916C72.029 34.0946 72.1406 34.0611 72.2332 33.996C72.37 33.8627 72.4722 33.6987 72.5311 33.518L70.8279 29.8286ZM67.8136 30.2625V31.8192H68.6032C68.8389 31.8302 69.0747 31.8021 69.3009 31.7358C69.4441 31.6831 69.5666 31.587 69.651 31.4612C69.7329 31.3312 69.7752 31.1805 69.7726 31.0274C69.7745 30.8781 69.7322 30.7316 69.651 30.6057C69.5705 30.4825 69.4521 30.388 69.3133 30.3361C69.094 30.2696 68.8645 30.2422 68.6355 30.2552L67.8136 30.2625ZM67.3493 29.8139H68.2829C68.642 29.7982 69.0018 29.822 69.3555 29.885C69.6199 29.9399 69.856 30.0855 70.0219 30.296C70.1879 30.5065 70.2728 30.7682 70.2618 31.0347C70.2786 31.306 70.1934 31.5739 70.0225 31.787C69.8516 32 69.607 32.1433 69.3357 32.1893C68.9453 32.2541 68.5493 32.2795 68.1538 32.2653H67.8236V34.398H67.3593L67.3493 29.8139ZM62.6145 30.7798L61.82 32.4443H63.4115L62.6145 30.7798ZM62.6741 29.8139L64.8391 34.398H64.3426L63.6176 32.8929H61.6064L60.8814 34.398H60.365L62.5574 29.8139H62.6741ZM59.8411 30.6645L59.4736 30.9465C59.2846 30.6927 59.0357 30.4882 58.7486 30.3508C58.4569 30.2178 58.1388 30.1508 57.8175 30.1547C57.458 30.1531 57.1041 30.2426 56.7896 30.4145C56.4812 30.5811 56.2238 30.8267 56.0448 31.1254C55.8748 31.4316 55.7892 31.7765 55.7965 32.1256C55.7903 32.3858 55.8388 32.6445 55.9387 32.8854C56.0387 33.1263 56.1881 33.3442 56.3775 33.5253C56.5714 33.7114 56.8012 33.857 57.0533 33.9534C57.3054 34.0498 57.5746 34.0952 57.8449 34.0867C58.1568 34.0917 58.4657 34.0265 58.7484 33.8961C59.031 33.7657 59.2799 33.5735 59.4761 33.3341L59.8436 33.6087C59.6126 33.8983 59.3157 34.1301 58.9771 34.2853C58.6146 34.4509 58.2194 34.5346 57.82 34.5304C57.4584 34.5475 57.0975 34.4841 56.764 34.3449C56.4305 34.2058 56.1329 33.9943 55.8933 33.7263C55.5013 33.2736 55.2918 32.6941 55.3049 32.0986C55.2975 31.7827 55.3576 31.4689 55.4812 31.1774C55.6049 30.886 55.7892 30.6236 56.0224 30.4071C56.258 30.1785 56.5382 29.9994 56.8458 29.8806C57.1535 29.7618 57.4824 29.7057 57.8126 29.7159C58.217 29.7082 58.6179 29.7921 58.9845 29.961C59.323 30.1244 59.6168 30.3657 59.8411 30.6645ZM51.6948 29.8213H52.1665V31.5372L54.0287 29.8213H54.6568L52.4222 31.878L54.8356 34.4054H54.2149L52.1715 32.2678V34.4054H51.6997L51.6948 29.8213ZM48.2361 29.8213H50.9027V30.2699H48.7103V31.7064H50.8828V32.1525H48.7103V33.9592H50.8828V34.4054H48.2361V29.8213ZM47.4515 34.4054H46.9549L45.418 30.8558L43.8463 34.4054H43.3498L45.3733 29.8213H45.4751L47.4515 34.4054ZM40.7477 30.7871L39.9532 32.4516H41.5422L40.7477 30.7871ZM40.8048 29.8213L42.9724 34.4054H42.4758L41.7533 32.9002H39.7297L39.0047 34.4054H38.4883L40.6782 29.8213H40.8048Z" fill="#FFF"/>
<line id="Line 79" x1="66.9238" y1="24.2324" x2="68.3787" y2="24.2324" stroke="black" fill="#fff"/>
</g>
<defs>
<clipPath id="clip0_640_1740" >
<rect width="145" height="39.2809" fill="#0D0D0D"/>
</clipPath>
</defs>
</svg>
