<svg width="20" height="23" viewBox="0 0 20 23" fill="none" xmlns="http://www.w3.org/2000/svg">
<path fill-rule="evenodd" clip-rule="evenodd" d="M2.49023 6.82314C2.49023 6.50097 2.7514 6.23981 3.07357 6.23981H16.1422C16.4644 6.23981 16.7255 6.50097 16.7255 6.82314V8.29647C16.7255 8.61864 16.4644 8.87981 16.1422 8.87981H3.07357C2.7514 8.87981 2.49023 8.61864 2.49023 8.29647V6.82314ZM3.2811 11.223C3.2811 10.9009 3.54226 10.6397 3.86443 10.6397H8.23371C8.55588 10.6397 8.81705 10.9009 8.81705 11.223V17.9764C8.81705 18.2985 8.55588 18.5597 8.23371 18.5597H3.86443C3.54226 18.5597 3.2811 18.2985 3.2811 17.9764V11.223ZM10.9818 10.6397C10.6596 10.6397 10.3984 10.9009 10.3984 11.223V17.9764C10.3984 18.2985 10.6596 18.5597 10.9818 18.5597H15.3511C15.6732 18.5597 15.9344 18.2985 15.9344 17.9764V11.223C15.9344 10.9009 15.6732 10.6397 15.3511 10.6397H10.9818Z" fill="#764C2F"/>
<path opacity="0.3" d="M11.5417 2.86768C11.9051 2.59809 12.3961 2.70736 12.6384 3.11174C12.8807 3.51613 12.7825 4.0625 12.4191 4.33209L9.60782 6.41751L6.79659 4.33209C6.43317 4.0625 6.33496 3.51613 6.57724 3.11174C6.81952 2.70736 7.31054 2.59809 7.67395 2.86768L9.60782 4.30225L11.5417 2.86768Z" fill="#764C2F"/>
</svg>
