<svg width="16" height="16" viewBox="0 0 16 16" fill="none" xmlns="http://www.w3.org/2000/svg">
<path fill-rule="evenodd" clip-rule="evenodd" d="M6.5855 7.9995L0.2925 1.7065C-0.0975 1.3165 -0.0975 0.6825 0.2925 0.2925C0.6825 -0.0975 1.3165 -0.0975 1.7065 0.2925L7.9995 6.5855L14.2925 0.2925C14.6825 -0.0975 15.3165 -0.0975 15.7065 0.2925C16.0965 0.6825 16.0965 1.3165 15.7065 1.7065L9.4135 7.9995L15.7065 14.2925C16.0965 14.6825 16.0965 15.3165 15.7065 15.7065C15.3165 16.0965 14.6825 16.0965 14.2925 15.7065L7.9995 9.4135L1.7065 15.7065C1.3165 16.0965 0.6825 16.0965 0.2925 15.7065C-0.0975 15.3165 -0.0975 14.6825 0.2925 14.2925L6.5855 7.9995Z" fill="#212460"/>
</svg>
